ModelForces
version=1
nRows=4
nColumns=155
inDegrees=no

This file contains the forces exerted on a model during a simulation.

A force is a generalized force, meaning that it can be either a force (N) or a torque (Nm).

Units are S.I. units (second, meters, Newtons, ...)
Angles are in degrees.

endheader
time	glut_med1_r	glut_med2_r	glut_med3_r	glut_min1_r	glut_min2_r	glut_min3_r	semimem_r	semiten_r	bifemlh_r	bifemsh_r	sar_r	add_long_r	add_brev_r	add_mag1_r	add_mag2_r	add_mag3_r	tfl_r	pect_r	grac_r	glut_max1_r	glut_max2_r	glut_max3_r	iliacus_r	psoas_r	quad_fem_r	gem_r	peri_r	rect_fem_r	vas_med_r	vas_int_r	vas_lat_r	med_gas_r	lat_gas_r	soleus_r	tib_post_r	flex_dig_r	flex_hal_r	tib_ant_r	per_brev_r	per_long_r	per_tert_r	ext_dig_r	ext_hal_r	glut_med1_l	glut_med2_l	glut_med3_l	glut_min1_l	glut_min2_l	glut_min3_l	semimem_l	semiten_l	bifemlh_l	bifemsh_l	sar_l	add_long_l	add_brev_l	add_mag1_l	add_mag2_l	add_mag3_l	tfl_l	pect_l	grac_l	glut_max1_l	glut_max2_l	glut_max3_l	iliacus_l	psoas_l	quad_fem_l	gem_l	peri_l	rect_fem_l	vas_med_l	vas_int_l	vas_lat_l	med_gas_l	lat_gas_l	soleus_l	tib_post_l	flex_dig_l	flex_hal_l	tib_ant_l	per_brev_l	per_long_l	per_tert_l	ext_dig_l	ext_hal_l	ercspn_r	ercspn_l	intobl_r	intobl_l	extobl_r	extobl_l	femur_lat_meniscii_r.femur_lat_r.force.X	femur_lat_meniscii_r.femur_lat_r.force.Y	femur_lat_meniscii_r.femur_lat_r.force.Z	femur_lat_meniscii_r.femur_lat_r.torque.X	femur_lat_meniscii_r.femur_lat_r.torque.Y	femur_lat_meniscii_r.femur_lat_r.torque.Z	femur_lat_meniscii_r.meniscus_lat_r.force.X	femur_lat_meniscii_r.meniscus_lat_r.force.Y	femur_lat_meniscii_r.meniscus_lat_r.force.Z	femur_lat_meniscii_r.meniscus_lat_r.torque.X	femur_lat_meniscii_r.meniscus_lat_r.torque.Y	femur_lat_meniscii_r.meniscus_lat_r.torque.Z	femur_med_meniscii_r.femur_med_r.force.X	femur_med_meniscii_r.femur_med_r.force.Y	femur_med_meniscii_r.femur_med_r.force.Z	femur_med_meniscii_r.femur_med_r.torque.X	femur_med_meniscii_r.femur_med_r.torque.Y	femur_med_meniscii_r.femur_med_r.torque.Z	femur_med_meniscii_r.meniscus_med_r.force.X	femur_med_meniscii_r.meniscus_med_r.force.Y	femur_med_meniscii_r.meniscus_med_r.force.Z	femur_med_meniscii_r.meniscus_med_r.torque.X	femur_med_meniscii_r.meniscus_med_r.torque.Y	femur_med_meniscii_r.meniscus_med_r.torque.Z	femur_med_tibia_r.tibia_upper_r.force.X	femur_med_tibia_r.tibia_upper_r.force.Y	femur_med_tibia_r.tibia_upper_r.force.Z	femur_med_tibia_r.tibia_upper_r.torque.X	femur_med_tibia_r.tibia_upper_r.torque.Y	femur_med_tibia_r.tibia_upper_r.torque.Z	femur_med_tibia_r.femur_med_r.force.X	femur_med_tibia_r.femur_med_r.force.Y	femur_med_tibia_r.femur_med_r.force.Z	femur_med_tibia_r.femur_med_r.torque.X	femur_med_tibia_r.femur_med_r.torque.Y	femur_med_tibia_r.femur_med_r.torque.Z	femur_lat_tibia_r.tibia_upper_r.force.X	femur_lat_tibia_r.tibia_upper_r.force.Y	femur_lat_tibia_r.tibia_upper_r.force.Z	femur_lat_tibia_r.tibia_upper_r.torque.X	femur_lat_tibia_r.tibia_upper_r.torque.Y	femur_lat_tibia_r.tibia_upper_r.torque.Z	femur_lat_tibia_r.femur_lat_r.force.X	femur_lat_tibia_r.femur_lat_r.force.Y	femur_lat_tibia_r.femur_lat_r.force.Z	femur_lat_tibia_r.femur_lat_r.torque.X	femur_lat_tibia_r.femur_lat_r.torque.Y	femur_lat_tibia_r.femur_lat_r.torque.Z	aACL_R	pACL_R	aPCL_R	pPCL_R	aMCL_R	mMCL_R	pMCL_R	aLCL_R	mLCL_R	pLCL_R	aPCL_L	pPCL_L	aMCL_L	aLCL_L
      0.16104280	     11.60184644	      8.47217107	      9.11386703	      3.90931328	      4.54025289	      4.92600247	      0.00000000	    168.36116950	    128.24966322	    282.78981860	    132.31090066	      8.43341683	      6.06675358	      0.86176289	      3.69540492	      6.23605825	      5.10105974	      3.30011973	    101.91242586	      5.47069260	      8.32260021	      6.25576669	     27.78043018	     18.79521896	      5.37740962	      3.69447740	      6.27641514	     51.20676712	     31.24032450	     33.27339087	     44.77455981	      0.00000000	      0.00000000	      0.00000000	      0.00000000	      0.00000000	      0.00000000	     34.90374172	      1.67741512	      1.88345531	     21.64409717	     39.03396696	     10.31317046	     11.60184644	      8.47217107	      9.11386703	      3.90931328	      4.54025289	      4.92600247	      0.00000000	      6.28421354	     12.40036031	     10.70322276	      2.23041334	      8.43341683	      6.06675358	      0.86176289	      3.69540492	      6.23605825	      5.48767103	      3.30011973	      2.30308183	      5.47069260	      8.32260021	      6.25576669	     27.78043018	     18.79521896	      5.37740962	      3.69447740	      6.27641514	     17.30185611	      0.00000000	      0.00000000	      0.00000000	     21.24666948	     10.05050943	     51.47367113	     51.34179810	      5.52634135	      4.94446067	     13.44971221	      7.20157843	     18.40667306	      2.90585712	      8.99298151	      2.82341435	     36.79834021	     36.79834021	     13.68877109	     13.68877109	     31.03275176	     31.03275176	     46.37194039	    114.23479503	     15.50191456	     -9.03075772	      1.12227849	     17.83877896	    -46.37194039	   -114.23479503	    -15.50191456	      3.21075833	     -1.49690049	      2.33160263	     11.05022970	     13.14698945	      9.83058001	     -3.68514602	     -0.26571220	      4.47626798	    -11.05022970	    -13.14698945	     -9.83058001	     -0.08796534	      0.05363657	      0.04858237	   -766.98458196	   -740.70983810	    225.76432149	    -17.06609061	     17.18925873	     -1.75080462	    766.98458196	    740.70983810	   -225.76432149	    105.16544231	    -13.73636057	    312.37756620	     -9.66348797	    -12.83833903	     -4.27608726	      0.42255491	     -0.34335959	      0.07617898	      9.66348797	     12.83833903	      4.27608726	     -2.05388871	      0.24436657	      3.90766871	     -9.83974558	      0.00000000	    537.96317854	    365.05325865	      0.00000000	      0.00000000	      0.00000000	      0.00000000	      0.00000000	      0.00000000	      0.00000000	      0.00000000	      0.00000001	      0.00000000
      0.16135808	     11.58625530	      8.46051102	      9.10117449	      3.90415245	      4.53460344	      4.91879247	      0.00000000	    168.56426677	    127.96532892	    282.36687302	    132.39665999	      8.42167724	      6.05881911	      1.39990631	      3.69022818	      6.22667920	      5.09920599	      3.29573192	    101.98434953	      5.46313206	      8.31107290	      6.24696931	     27.75892725	     18.77069435	      5.37015660	      3.69092915	      6.27352941	     51.44778973	     31.23708081	     33.26478134	     44.75080120	      0.00000000	      0.00000000	      0.00000000	      0.00000000	      0.00000000	      0.00000000	     34.96149787	      1.69233165	      1.90732541	     22.39622257	     39.24515404	     10.36633573	     11.58625530	      8.46051102	      9.10117449	      3.90415245	      4.53460344	      4.91879247	      0.00000000	      6.27502416	     12.38294901	     10.68876937	      2.22748263	      8.42167724	      6.05881911	      1.39990631	      3.69022818	      6.22667920	      5.48189660	      3.29573192	      2.30000254	      5.46313206	      8.31107290	      6.24696931	     27.75892725	     18.77069435	      5.37015660	      3.69092915	      6.27352941	     17.27484346	      0.00000000	      0.00000000	      0.00000000	     21.24041151	     10.04640144	     51.41150759	     51.30788604	      5.51953792	      4.93843373	     13.43003236	      7.19040037	     18.38607526	      2.90207963	      8.97725495	      2.81857184	     36.74965269	     36.74965269	     13.66921436	     13.66921436	     31.01500903	     31.01500903	     46.08027378	    114.36199695	     15.18365005	     -8.90773372	      1.11091960	     17.71005916	    -46.08027378	   -114.36199695	    -15.18365005	      3.21029045	     -1.47977559	      2.35908443	     11.20781697	     13.03259783	      9.73567489	     -3.64855875	     -0.26946780	      4.53854297	    -11.20781697	    -13.03259783	     -9.73567489	     -0.08849614	      0.05847244	      0.04604365	   -772.39151328	   -741.05190693	    225.41095997	    -17.05612366	     17.29459354	     -1.74847629	    772.39151328	    741.05190693	   -225.41095997	    105.03125740	    -13.84498548	    314.54420423	     -8.96852152	    -11.85852736	     -3.92987678	      0.38914482	     -0.31789962	      0.07149653	      8.96852152	     11.85852736	      3.92987678	     -1.88845546	      0.22654663	      3.62579794	     -9.82929302	      0.00000000	    541.83605706	    366.81994251	      0.00000000	      0.00000000	      0.00000000	      0.00000000	      0.00000000	      0.00000000	      0.00000000	      0.00000000	      0.00000001	      0.00000000
      0.16200567	     11.55432657	      8.43671623	      9.07527312	      3.89362004	      4.52307447	      4.90407717	      0.00000000	    168.96361330	    127.39366499	    281.62172380	    132.56237452	      8.39772055	      6.04262583	      2.14360080	      3.67966385	      6.20753890	      5.09464588	      3.28677725	    102.12106385	      5.44770369	      8.28754975	      6.22901713	     27.71505027	     18.72065218	      5.35535489	      3.68368932	      6.26746049	     51.93594216	     31.18347910	     33.21720922	     44.68322519	      0.00000000	      0.00000000	      0.00000000	      0.00000000	      0.00000000	      0.00000000	     35.07484669	      1.72416091	      1.95837400	      0.00000000	     39.64519536	     10.46003013	     11.55432657	      8.43671623	      9.07527312	      3.89362004	      4.52307447	      4.90407717	      0.00000000	      6.25627189	     12.34730745	     10.65927356	      2.22150146	      8.39772055	      6.04262583	      2.14360080	      3.67966385	      6.20753890	      5.47011111	      3.28677725	      2.29371833	      5.44770369	      8.28754975	      6.22901713	     27.71505027	     18.72065218	      5.35535489	      3.68368932	      6.26746049	     17.21969592	      0.00000000	      0.00000000	      0.00000000	     21.22714539	     10.03778133	     51.28382274	     51.23854740	      5.50548780	      4.92594219	     13.38980484	      7.16756123	     18.34390346	      2.89437157	      8.94552477	      2.80884137	     36.65028961	     36.65028961	     13.62930594	     13.62930594	     30.97880571	     30.97880571	     46.85281366	    114.56148548	     14.47968010	     -8.62184522	      1.12690160	     18.01477432	    -46.85281366	   -114.56148548	    -14.47968010	      3.19564347	     -1.48474180	      2.37431729	     11.34576084	     12.58929990	      9.49250356	     -3.55958048	     -0.27194176	      4.59129848	    -11.34576084	    -12.58929990	     -9.49250356	     -0.08506327	      0.06442101	      0.04012431	   -784.31346846	   -741.12219946	    226.18602513	    -17.06126742	     17.56033617	     -1.78911070	    784.31346846	    741.12219946	   -226.18602513	    105.36029972	    -14.08949150	    319.34383264	     -8.10911047	    -10.54802002	     -3.46175428	      0.34431642	     -0.28547861	      0.06338858	      8.10911047	     10.54802002	      3.46175428	     -1.66513084	      0.20424899	      3.27810849	     -9.65403261	      0.00000000	    549.68704516	    370.30968941	      0.00000000	      0.00000000	      0.00000000	      0.00000000	      0.00000000	      0.00000000	      0.00000000	      0.00000000	      0.00000001	      0.00000000
      0.16207042	     11.55114093	      8.43434813	      9.07269540	      3.89257179	      4.52192708	      4.90261255	      0.00000000	    169.00242170	    127.33857372	    281.55991411	    132.57817890	      8.39533637	      6.04101415	      2.20174121	      3.67861247	      6.20563400	      5.09414248	      3.28588604	    102.13397295	      5.44616827	      8.28520875	      6.22723056	     27.71068387	     18.71567231	      5.35388177	      3.68296888	      6.26684325	     51.99061767	     31.19946528	     33.22594289	     44.68628884	      0.00000000	      0.00000000	      0.00000000	      0.00000000	      0.00000000	      0.00000000	     35.08671952	      1.72735322	      1.96355779	      2.92999248	     39.69977698	     10.47631263	     11.55114093	      8.43434813	      9.07269540	      3.89257179	      4.52192708	      4.90261255	      0.00000000	      6.25440567	     12.34375232	     10.65633804	      2.22090617	      8.39533637	      6.04101415	      2.20174121	      3.67861247	      6.20563400	      5.46893809	      3.28588604	      2.29309290	      5.44616827	      8.28520875	      6.22723056	     27.71068387	     18.71567231	      5.35388177	      3.68296888	      6.26684325	     17.21420591	      0.00000000	      0.00000000	      0.00000000	     21.22578850	     10.03690595	     51.27105483	     51.23163694	      5.50407697	      4.92468449	     13.38579650	      7.16528620	     18.33969639	      2.89360451	      8.94239388	      2.80788421	     36.64040039	     36.64040039	     13.62533428	     13.62533428	     30.97520303	     30.97520303	     46.82349888	    114.77951104	     14.40547930	     -8.59710840	      1.12521324	     17.99873064	    -46.82349888	   -114.77951104	    -14.40547930	      3.19978969	     -1.48172024	      2.38525244	     11.37937620	     12.56559352	      9.46033390	     -3.54689738	     -0.27275725	      4.60452709	    -11.37937620	    -12.56559352	     -9.46033390	     -0.08544438	      0.06571740	      0.03963900	   -785.68102136	   -741.30278069	    226.43159715	    -17.06872305	     17.59364011	     -1.79345368	    785.68102136	    741.30278069	   -226.43159715	    105.46530216	    -14.11757990	    319.89538191	     -8.04008500	    -10.42505404	     -3.38588926	      0.33913751	     -0.28172076	      0.06222880	      8.04008500	     10.42505404	      3.38588926	     -1.63087787	      0.20207308	      3.25035258	     -9.64860748	      0.00000000	    550.47537674	    370.67290226	      0.00000000	      0.00000000	      0.00000000	      0.00000000	      0.00000000	      0.00000000	      0.00000000	      0.00000000	      0.00000001	      0.00000000
